<svg xmlns="http://www.w3.org/2000/svg" viewBox="0 0 223 45"><path fill="#000000" d="M21.171 44.782H11.96L0 11.602h9.771l6.89 24.446h.125l7.076-24.446H33.2Zm41.093-6.489c0 3.931.878 4.8 1.941 5.176v1.313h-9.46a14.734 14.734 0 0 1-.811-3.933 13.584 13.584 0 0 1-10.775 4.8c-5.01 0-10.145-2.808-10.145-9.667 0-6.487 4.133-9.792 9.708-10.6l7.89-1.183c1.379-.192 3.068-.752 3.068-2.62 0-3.678-3.505-3.866-5.761-3.866-4.381 0-5.135 2.676-5.386 4.612h-8.456c1-10.165 8.08-11.6 14.907-11.6 4.7 0 13.28 1.431 13.28 9.6Zm-8.584-9.665c-.875.685-2.315 1.245-5.947 1.8-3.257.566-5.953 1.375-5.953 4.988a3.819 3.819 0 0 0 4.074 4c3.881 0 7.826-2.5 7.826-6.549ZM76.3 44.782h-8.77V0h8.77Zm16.658-33.18h5.45v6.238h-5.45v18.022c0 1.935.063 2.681 3.636 2.681.56 0 1.186-.062 1.814-.125v6.606c-1.379.069-2.759.133-4.136.133h-1.124c-7.582 0-8.959-2.872-8.959-7.18V17.84h-4.51v-6.238h4.51V2.618h8.769Zm39.651 23.444c-2.321 7.987-8.956 10.607-14.655 10.607-9.4 0-16.6-4.493-16.6-18.147 0-3.994 1.378-16.775 15.971-16.775 6.576 0 15.657 3.117 15.657 18.271v1.562h-22.861c.25 2.489.754 8.1 7.833 8.1 2.441 0 4.943-1.25 5.635-3.621Zm-8.645-10.16c-.5-5.366-3.944-6.983-6.763-6.983-4.134 0-6.326 2.62-6.83 6.983Zm41.974 7.794c-.317 3.431-3.008 12.973-15.223 12.973-12.531 0-15.409-9.542-15.409-16.526 0-10.727 4.695-18.4 15.969-18.4 5.265 0 13.91 2.365 14.723 12.718h-8.893c-.379-2.118-1.629-5.36-5.393-5.36h-.437c-5.51 0-6.951 5.49-6.951 9.605 0 3.612.127 10.787 6.763 10.787 4.451 0 5.953-4.244 5.953-5.8Zm34.073 12.102h-8.769V24.64c0-2.432-.126-6.547-5.7-6.547-3.878 0-6.887 2.62-6.887 7.669v19.02h-8.768V0h8.768v15.905h.126c1.129-2.74 4.883-5.174 9.643-5.174 6.516 0 11.591 3.8 11.591 11.1Zm5.449-6.239H223v6.24h-17.54z"/></svg>
